PathFileType	4	(X/Y/Z)	RBDS028\RBDS028runT45.trc
DataRate	CameraRate	NumFrames	NumMarkers	Units	OrigDataRate	OrigDataStartFrame	OrigNumFrames
150.000000	150.000000	4	33	mm	150.000000	0	4500
Frame#	Time	L.ASIS			L.Heel.Bottom			L.Heel.Lateral			L.Heel.Top			L.Iliac.Crest			L.MT1			L.MT5			L.PSIS			L.Shank.Bottom.Lateral			L.Shank.Bottom.Medial			L.Shank.Top.Lateral			L.Shank.Top.Medial			L.Thigh.Bottom.Lateral			L.Thigh.Bottom.Medial			L.Thigh.Top.Lateral			L.Thigh.Top.Medial			R.ASIS			R.ASY			R.Heel.Bottom			R.Heel.Lateral			R.Heel.Top			R.Iliac.Crest			R.MT1			R.MT5			R.PSIS			R.Shank.Bottom.Lateral			R.Shank.Bottom.Medial			R.Shank.Top.Lateral			R.Shank.Top.Medial			R.Thigh.Bottom.Lateral			R.Thigh.Bottom.Medial			R.Thigh.Top.Lateral			R.Thigh.Top.Medial			
		X1	Y1	Z1	X2	Y2	Z2	X3	Y3	Z3	X4	Y4	Z4	X5	Y5	Z5	X6	Y6	Z6	X7	Y7	Z7	X8	Y8	Z8	X9	Y9	Z9	X10	Y10	Z10	X11	Y11	Z11	X12	Y12	Z12	X13	Y13	Z13	X14	Y14	Z14	X15	Y15	Z15	X16	Y16	Z16	X17	Y17	Z17	X18	Y18	Z18	X19	Y19	Z19	X20	Y20	Z20	X21	Y21	Z21	X22	Y22	Z22	X23	Y23	Z23	X24	Y24	Z24	X25	Y25	Z25	X26	Y26	Z26	X27	Y27	Z27	X28	Y28	Z28	X29	Y29	Z29	X30	Y30	Z30	X31	Y31	Z31	X32	Y32	Z32	X33	Y33	Z33	

1	0	1874.247391842918	839.52479194329	905.4461880552299	1482.77356312756	73.94133256690176	1028.009204722803	1517.085490566312	83.39895296191841	985.8260577009097	1504.59138170061	113.7257986143328	1030.160521820949	1794.124147625392	879.3371806585701	890.4323035176637	1692.975337401944	33.46994912725386	1074.351059875691	1656.158288802957	36.26914325078847	965.9060039573931	1728.937521695514	853.200264430312	998.1610049030967	1613.178403981804	167.1532617101044	966.2478116915178	1581.629043933481	195.5545732758314	994.3621431155115	1647.248028864742	232.7864030251859	932.9535310466061	1622.60793807969	265.0611600014464	967.7300289257795	1811.990179047742	501.2141510784169	873.0615971107314	1747.701915041687	501.5676362739875	907.1594136297003	1804.896264071371	610.8942781834638	860.3311721127229	1745.500883514094	610.4734534117435	896.7834673412502	1895.186169750006	840.1020044075476	1147.108618020113	1811.364848013167	204.544459658411	1098.133756219976	1681.751016311383	341.0805855454413	1070.405444579884	1709.086905649865	324.567908542718	1115.932290848869	1726.199104521885	351.4739191301194	1073.331307094058	1832.041616085743	887.1914843706534	1171.370933033389	1789.244634719729	149.9939972050395	1050.457986883278	1757.310346542278	182.3966718816067	1154.849333426749	1739.570853351129	849.1383175967101	1086.222849662975	1827.82167053312	345.0109005214867	1143.252766061786	1813.360513738084	380.8114372507514	1103.266777077088	1887.729451075593	395.7993697188902	1164.224751482826	1873.818546727692	428.9943075223531	1124.023094957509	2032.400370585087	556.9962551075339	1207.659613757441	1990.88356794794	516.44055679711	1168.515917453808	1954.313416858451	636.5525481247419	1209.403391636894	1912.491952168394	593.7483428841743	1176.283933444096	
2	0.006666666666666667	1875.075346619614	840.3951353117546	903.8077513854845	1457.226119803319	85.23683914548948	1026.968562210446	1491.731304227391	91.47586116887958	984.5198018490577	1481.171626967238	123.6529570217164	1028.065835769921	1797.672307589036	882.1595675413339	889.042284695313	1663.958116378523	32.9108429221733	1074.148579784368	1627.281215807275	36.07440333299513	965.1024682221981	1730.352090040642	856.2038782656091	996.9019820676177	1589.134717669269	175.8002910868368	964.3259474369607	1558.627903886916	203.7391326000434	993.8181725025995	1623.639674896567	241.7844273953588	932.2951949314632	1599.865721194527	273.3962345266082	968.2160562430677	1796.201527251412	506.5077360159676	873.6283445480223	1733.284074601895	510.6044787910047	909.1336459291335	1794.81017590867	615.7348728732918	860.0392746876173	1736.749559287501	618.8542592127372	897.8432543776213	1896.636384836285	843.9280377587203	1144.965253087354	1845.0096212278	192.4598742421184	1100.625467778693	1704.87623947805	316.1791211062715	1070.083387463725	1732.745827693574	302.6300160245727	1116.040864122819	1747.965569137348	330.4537922354628	1072.979188190319	1833.975631022591	891.9712329741891	1170.618700226694	1828.814269471053	136.0995374535442	1053.822574415802	1792.762034166384	166.313373325461	1157.382109557353	1740.825798802098	852.542678178222	1085.389914295499	1849.084212650272	334.100186034894	1142.8019132035	1831.876891749257	367.4840241268502	1102.120013250742	1903.850947488799	389.9355730970756	1162.399284339712	1887.353953155875	420.7619671637726	1121.619864918319	2038.226815582107	565.8435187406043	1203.90536671161	1997.335747920997	524.0621996575112	1164.342693548457	1958.121167164716	642.7716962131104	1206.892810454925	1917.16171735205	599.1603170131777	1173.70842664052	
3	0.01333333333333333	1875.921987051928	841.2385554745769	902.2146273752505	1432.354098869318	96.90960860766823	1025.819129176024	1466.942012218056	99.88857027924837	983.1284888624693	1458.427755946354	133.8387188032726	1025.871771723889	1801.417861931803	884.9339597386698	887.6555111234879	1635.15888020371	32.52640054117606	1073.923632041478	1598.60202054979	36.07672782157911	964.2920117515902	1731.78208841094	859.2433742992743	995.6311901066739	1565.645127548342	184.484013666853	962.3504596344188	1536.158300562119	211.9524990664675	993.196806613552	1600.600164635878	250.8096415093096	931.6040485427703	1577.656803602531	281.7571743512707	968.6318029669178	1780.769969803813	511.8619049041591	874.1694452856541	1719.23814644779	519.6110427781316	911.0869202371135	1784.96703903511	620.6077808767453	859.7664389296411	1728.280361731073	627.1686996422584	898.9418023443162	1898.097871475104	847.7251970671289	1142.770681592784	1878.677006682163	180.8066442038959	1102.893941993994	1728.408936793316	291.3639420596465	1069.956812304009	1756.807722431256	280.8291925509626	1116.270791306919	1770.012816869778	309.4786453011786	1072.762149475188	1835.942302068609	896.7402537828922	1169.823939552399	1868.37721607822	122.7982094304419	1056.915635789369	1828.48614815547	150.7788970032403	1159.774055693221	1742.111125188792	855.9949900456766	1084.557770262317	1870.417770218482	323.1996530334833	1142.376503539205	1850.506295962251	354.1501116115766	1101.047786611553	1919.981473373194	383.9090671164395	1160.648931858038	1900.950160995275	412.3603450197174	1119.332288650325	2043.775401941266	574.3188047871242	1200.116585161931	2003.398767103266	531.3458571929518	1160.324350759173	1961.794674062502	648.8053778728472	1204.342172102885	1921.591673519549	604.4188626231875	1171.21627929377	
4	0.02	1876.796787550414	842.0480494869201	900.705224837915	1408.69664365772	109.3091265399649	1024.504971357532	1443.16313579564	108.9731561782838	981.6077890906035	1436.900149778564	144.5335508881629	1023.537812225244	1805.51448233215	887.6487913134044	886.2747198684204	1606.72788241682	32.48585397630539	1073.613233983714	1570.252118152539	36.50327455499981	963.4462601337226	1733.228786520503	862.3684710888575	994.3371811585264	1543.167839941332	193.2552403667449	960.2935833333592	1514.658836558191	220.2471121094454	992.4459961379489	1578.615965099585	259.9014956594379	930.865524668963	1556.437607122115	290.1918584761747	968.9278542657679	1766.045500143565	517.3144660446366	874.6736716493768	1705.911708389621	528.5430681827172	912.986582647344	1775.609890233147	625.528709225679	859.5303383109406	1720.350490898273	635.3465676048061	900.0914659911123	1899.571053030478	851.4853390185148	1140.476352838767	1912.458690517397	170.0204607407414	1104.740220603803	1752.822585157413	266.7322261768539	1070.225632357884	1781.748858878115	259.2982167752799	1116.753923219063	1792.690035991835	288.6016247817768	1072.844249952331	1837.958313703766	901.4951558994212	1168.948596906632	1907.980734241798	110.7118445930146	1059.475424872041	1864.828256741167	136.3151857183656	1161.867917609069	1743.446628497925	859.5485091591611	1083.724056706998	1891.94555684792	312.3550476779593	1142.028747397111	1869.410357742513	340.8233839052173	1100.15197829916	1936.169777757714	377.5993661003866	1159.067741920182	1914.700756399545	403.6463464377879	1117.293517880283	2048.780237119917	582.0801096051956	1196.277283663114	2008.7050238974	537.9894573696748	1156.603917027146	1965.20777078436	654.4867610068986	1201.7278873265	1925.557175634377	609.3918166645442	1168.887068329064	
